<svg width="65" height="64" viewBox="0 0 65 64" fill="none" xmlns="http://www.w3.org/2000/svg">
<path d="M0.5 32C0.5 14.3269 14.8269 0 32.5 0C50.1731 0 64.5 14.3269 64.5 32C64.5 49.6731 50.1731 64 32.5 64C14.8269 64 0.5 49.6731 0.5 32Z" fill="#F4F5F7"/>
<g clip-path="url(#clip0_3221:1230)">
<path d="M38.5 30H44.5L41.5 26L38.5 30ZM38.5 34H44.5L41.5 38L38.5 34Z" fill="#D6B1FF"/>
<path d="M21.5 20H27.5V44H21.5C21.2348 44 20.9804 43.8946 20.7929 43.7071C20.6054 43.5196 20.5 43.2652 20.5 43V21C20.5 20.7348 20.6054 20.4804 20.7929 20.2929C20.9804 20.1054 21.2348 20 21.5 20Z" fill="#8C30F5"/>
<path d="M29.5 20H35.5C35.7652 20 36.0196 20.1054 36.2071 20.2929C36.3946 20.4804 36.5 20.7348 36.5 21V43C36.5 43.2652 36.3946 43.5196 36.2071 43.7071C36.0196 43.8946 35.7652 44 35.5 44H29.5V20Z" fill="#2EC5CE"/>
</g>
<defs>
<clipPath id="clip0_3221:1230">
<rect width="24" height="24" fill="white" transform="translate(20.5 20)"/>
</clipPath>
</defs>
</svg>
