<svg width="65" height="64" viewBox="0 0 65 64" fill="none" xmlns="http://www.w3.org/2000/svg">
<path d="M0.5 32C0.5 14.3269 14.8269 0 32.5 0C50.1731 0 64.5 14.3269 64.5 32C64.5 49.6731 50.1731 64 32.5 64C14.8269 64 0.5 49.6731 0.5 32Z" fill="#F4F5F7"/>
<path d="M41.5 44H32.5C32.2348 44 31.9804 43.8946 31.7929 43.7071C31.6054 43.5196 31.5 43.2652 31.5 43V41C31.5 40.7348 31.6054 40.4804 31.7929 40.2929C31.9804 40.1054 32.2348 40 32.5 40H41.5C41.7652 40 42.0196 40.1054 42.2071 40.2929C42.3946 40.4804 42.5 40.7348 42.5 41V43C42.5 43.2652 42.3946 43.5196 42.2071 43.7071C42.0196 43.8946 41.7652 44 41.5 44Z" fill="#D6B1FF"/>
<path d="M41.5 20H23.5C23.2348 20 22.9804 20.1054 22.7929 20.2929C22.6054 20.4804 22.5 20.7348 22.5 21V23C22.5 23.2652 22.6054 23.5196 22.7929 23.7071C22.9804 23.8946 23.2348 24 23.5 24H41.5C41.7652 24 42.0196 23.8946 42.2071 23.7071C42.3946 23.5196 42.5 23.2652 42.5 23V21C42.5 20.7348 42.3946 20.4804 42.2071 20.2929C42.0196 20.1054 41.7652 20 41.5 20Z" fill="#2EC5CE"/>
<path d="M41.5 26H23.5C23.2348 26 22.9804 26.1054 22.7929 26.2929C22.6054 26.4804 22.5 26.7348 22.5 27V37C22.5 37.2652 22.6054 37.5196 22.7929 37.7071C22.9804 37.8946 23.2348 38 23.5 38H41.5C41.7652 38 42.0196 37.8946 42.2071 37.7071C42.3946 37.5196 42.5 37.2652 42.5 37V27C42.5 26.7348 42.3946 26.4804 42.2071 26.2929C42.0196 26.1054 41.7652 26 41.5 26Z" fill="#8C30F5"/>
</svg>
